<svg xmlns="http://www.w3.org/2000/svg" viewBox="0 0 512 512"><path d="m85.02 379.93-247.278-142.766V-48.368L85.021-191.135 332.299-48.368v285.532z" style="opacity:1;fill:#2e3440;fill-opacity:1" transform="translate(180.641 171.366) scale(.89657)"/><path d="M335.013 92.485h59.448v127.838h-55.24q-3.682-16.308-12.625-29.986-8.417-13.679-21.043-23.148-12.626-9.996-28.409-15.256-15.783-5.261-33.143-5.261-27.883 0-42.087 12.1-13.678 11.573-13.678 27.882t13.678 29.987v34.195l51.556-51.556 51.556 51.556v-25.778q18.413 2.105 35.774 11.574 17.887 9.47 31.565 23.674 14.204 14.204 22.622 31.039 8.417 16.834 8.417 34.195 0 23.674-9.995 42.613-9.996 18.413-27.883 31.565-17.36 13.152-41.56 19.991-23.674 6.84-51.557 6.84-31.039 0-56.817-11.048-25.778-11.574-45.77-29.987v33.143h-59.447V288.714h56.817q11.574 35.248 40.509 56.291 28.935 21.044 68.39 21.044 11.049 0 21.044-3.157 9.996-3.682 17.361-8.943 7.891-5.787 12.626-13.152 4.735-7.366 4.735-15.257 0-13.678-7.892-22.095-7.89-8.418-18.939-9.47v-37.878l-51.556 51.556-51.556-51.556v28.409q-16.309-5.261-31.565-14.73-15.256-9.47-26.83-22.096-11.574-13.152-18.94-29.46-6.838-16.31-6.838-35.249 0-22.095 8.943-39.982 9.47-18.413 25.252-31.039 15.783-13.152 36.826-20.517 21.57-7.365 45.77-7.365 31.038 0 55.764 11.047 24.726 11.048 44.717 28.935z" aria-label="S" style="font-size:526.084px;font-family:Lutsk-sity;-inkscape-font-specification:Lutsk-sity;fill:#eceff4;stroke-width:2.74002"/></svg>