<svg xmlns="http://www.w3.org/2000/svg" xmlns:svg="http://www.w3.org/2000/svg" id="svg1" width="24" height="24" version="1.1" viewBox="0 0 512 512"><g id="layer1"><path style="opacity:1;fill:#2e3440;fill-opacity:1" id="path1" d="m 85.020767,379.93064 -247.278487,-142.76629 0,-285.532591 247.278472,-142.766299 247.278478,142.766285 10e-6,285.532595 z" transform="matrix(0.89657015,0,0,0.89657015,180.6414,171.36553)"/><path id="text1" d="m 335.01324,92.485034 h 59.44749 V 220.32344 h -55.23882 q -3.68259,-16.3086 -12.62601,-29.98678 -8.41735,-13.67819 -21.04336,-23.1477 -12.62602,-9.9956 -28.40854,-15.25644 -15.78252,-5.26084 -33.14329,-5.26084 -27.88245,0 -42.08672,12.09994 -13.67818,11.57384 -13.67818,27.88245 0,16.3086 13.67818,29.98678 v 34.19546 l 51.55623,-51.55623 51.55623,51.55623 V 225.0582 q 18.41294,2.10433 35.77371,11.57385 17.88686,9.46951 31.56504,23.67378 14.20427,14.20426 22.62162,31.03895 8.41734,16.83469 8.41734,34.19546 0,23.67378 -9.9956,42.6128 -9.99559,18.41294 -27.88245,31.56504 -17.36077,13.1521 -41.56063,19.99119 -23.67378,6.83909 -51.55623,6.83909 -31.03896,0 -56.81707,-11.04776 -25.77812,-11.57385 -45.76931,-29.98679 V 418.6571 H 110.37538 V 288.71436 h 56.81707 q 11.57385,35.24763 40.50847,56.29099 28.93462,21.04336 68.39091,21.04336 11.04777,0 21.04336,-3.15651 9.9956,-3.68259 17.36078,-8.94343 7.89126,-5.78692 12.62601,-13.1521 4.73476,-7.36517 4.73476,-15.25643 0,-13.67818 -7.89126,-22.09553 -7.89126,-8.41734 -18.93903,-9.46951 v -37.87805 l -51.55623,51.55623 -51.55623,-51.55623 v 28.40854 q -16.3086,-5.26084 -31.56504,-14.73035 -15.25643,-9.46951 -26.83028,-22.09553 -11.57385,-13.1521 -18.93902,-29.4607 -6.83909,-16.30861 -6.83909,-35.24763 0,-22.09553 8.94342,-39.98238 9.46951,-18.41294 25.25203,-31.03896 15.78252,-13.152098 36.82588,-20.517274 21.56945,-7.365176 45.76931,-7.365176 31.03896,0 55.7649,11.047764 24.72595,11.047766 44.71714,28.934616 z" style="font-size:526.084px;font-family:Lutsk-sity;-inkscape-font-specification:Lutsk-sity;fill:#eceff4;stroke-width:2.74002" aria-label="S"/></g></svg>