<svg xmlns="http://www.w3.org/2000/svg" xmlns:xlink="http://www.w3.org/1999/xlink" x="0" y="0" version="1.1" viewBox="0 0 580 580" xml:space="preserve" style="enable-background:new 0 0 580 580"><g id="bg"><polygon id="bg_1_" points="39.9 145.9 39.9 434.5 289.9 578.9 539.9 434.5 539.9 145.9 289.9 1.5" style="fill:#f2f2f2"/></g><g id="logo"><polygon id="up_1" points="389.5 59.2 139.9 203.4 39.5 145.8 289.5 1.5" style="fill:#e0e9ed"/><polygon id="up_2" points="539.9 334.5 523.7 343.9 440 392.2 289.9 478.9 226 441.9 190 421.1 289.9 363.5 290.3 363.2 340.5 334.2 340.6 334.2 290 304.6 290 304.6 239.9 333.3 239.9 245.7 313 203.5 371.5 237.3 389 247.4 440 276.8" style="fill:#e0e9ed"/><polygon id="shadow_1" points="340.6 334.2 290.3 363.2 290.5 363.3 290 304.6" style="fill:#577483"/><polygon id="shadow_2" points="139.9 203.4 139.9 492.3 39.9 434.5 39.9 145.8" style="fill:#577483"/><polyline id="side_1" points="289.9 578.9 289.9 478.9 539.9 334.5 539.9 434.5 289.9 578.9" style="fill:#8ea3ae"/><polygon id="side_2" points="389.5 59.2 389.5 160.5 313 203.5 239.9 245.7 239.9 333.3 290 304.6 290 304.6 290.3 363.2 289.9 363.5 190 421.1 226 441.9 226 441.9 189.9 421.1 189.9 463 139.9 492.3 139.9 391.1 139.9 391.1 139.9 276.2 139.9 276.2 139.9 203.4" style="fill:#b1c0c9"/><polygon id="shadow_3" points="289.9 478.9 289.9 578.9 189.9 521.1 189.9 421.1 226 441.9" style="fill:#577483"/></g></svg>