<svg xmlns="http://www.w3.org/2000/svg" viewBox="0 0 580 580"><path fill="#f2f2f2" d="M39.9 145.9v288.6l250 144.4 250-144.4V145.9L289.9 1.5z"/><path fill="#e0e9ed" d="M389.5 59.2L139.9 203.4 39.5 145.8l250-144.3zM539.9 334.5l-16.2 9.4-83.7 48.3-150.1 86.7-63.9-37-36-20.8 99.9-57.6.4-.3 50.2-29h.1L290 304.6l-50.1 28.7v-87.6l73.1-42.2 58.5 33.8 17.5 10.1 51 29.4z"/><path fill="#577483" d="M340.6 334.2l-50.3 29 .2.1-.5-58.7zM139.9 203.4v288.9l-100-57.8V145.8z"/><path fill="#8ea3ae" d="M289.9 578.9v-100l250-144.4v100l-250 144.4"/><path fill="#b1c0c9" d="M389.5 59.2v101.3l-76.5 43-73.1 42.2v87.6l50.1-28.7.3 58.6-.4.3-99.9 57.6 36 20.8-36.1-20.8V463l-50 29.3V203.4z"/><path fill="#577483" d="M289.9 478.9v100l-100-57.8v-100l36.1 20.8z"/></svg>